<svg width="128" height="128" viewBox="0 0 128 128" fill="none" xmlns="http://www.w3.org/2000/svg">
<g clip-path="url(#clip0_526_8639)">
<path d="M20.27 128C22.89 128 26.12 125.3 26.36 124.85C26.69 124.46 28.86 122.29 29.1 121.83C29.42 121.45 29.7 121.04 29.93 120.59C30.26 120.21 30.54 119.79 30.77 119.34C31.1 118.95 31.38 118.54 31.61 118.09C31.93 117.71 32.22 117.29 32.45 116.84C32.77 116.46 33.05 116.04 33.29 115.59C33.62 115.2 33.9 114.78 34.14 114.32C34.46 113.94 34.74 113.53 34.97 113.08C35.29 112.69 35.58 112.28 35.81 111.83C36.13 111.44 36.41 111.03 36.65 110.58C36.97 110.19 37.26 109.78 37.49 109.33C37.82 108.94 38.1 108.52 38.34 108.07C38.66 107.69 38.94 107.27 39.17 106.83C39.49 106.44 39.77 106.03 40.01 105.58C40.33 105.19 40.61 104.78 40.85 104.33C41.17 103.94 41.45 103.53 41.69 103.08C42.02 102.69 42.3 102.27 42.54 101.82C42.86 101.44 43.14 101.02 43.37 100.58C43.69 100.19 43.97 99.78 44.21 99.33C44.53 98.94 44.81 98.53 45.05 98.08C45.37 97.69 45.65 97.27 45.89 96.83C46.12 96.55 46.33 96.27 46.52 95.96V118.46C46.52 123.74 50.85 128.01 56.18 128.01H65.02C68.89 128.01 72.22 125.76 73.76 122.51C73.93 122.23 74.08 121.94 74.22 121.65C74.38 121.38 74.53 121.1 74.67 120.81C74.83 120.55 74.97 120.28 75.11 120C75.28 119.72 75.43 119.44 75.57 119.14C75.73 118.87 75.89 118.59 76.02 118.3C76.19 118.03 76.34 117.75 76.47 117.46C76.63 117.19 76.79 116.91 76.92 116.62C77.09 116.34 77.25 116.05 77.39 115.75C77.55 115.49 77.69 115.22 77.83 114.94C78 114.66 78.15 114.38 78.29 114.08C78.45 113.81 78.6 113.54 78.73 113.26C78.9 112.99 79.05 112.7 79.19 112.41C79.36 112.13 79.51 111.85 79.65 111.55C79.81 111.29 79.96 111.01 80.09 110.73C80.27 110.44 80.43 110.14 80.57 109.84C80.72 109.58 80.87 109.32 80.99 109.05C81.16 108.77 81.31 108.49 81.45 108.2C81.62 107.92 81.77 107.64 81.91 107.35C82.07 107.08 82.22 106.81 82.35 106.53C82.52 106.25 82.68 105.96 82.82 105.66C82.98 105.39 83.13 105.12 83.26 104.83C83.43 104.55 83.58 104.26 83.72 103.97C83.88 103.7 84.03 103.42 84.17 103.13C84.33 102.86 84.48 102.59 84.61 102.3C84.78 102.03 84.93 101.74 85.07 101.45C85.23 101.18 85.39 100.9 85.52 100.61C85.68 100.34 85.84 100.06 85.97 99.77C86.14 99.5 86.29 99.21 86.43 98.92C86.6 98.64 86.76 98.35 86.9 98.05C87.06 97.79 87.2 97.51 87.34 97.24C87.51 96.97 87.66 96.69 87.79 96.4C87.96 96.13 88.11 95.85 88.24 95.56C88.41 95.29 88.56 95.01 88.69 94.72C88.86 94.45 89.01 94.17 89.14 93.88C89.31 93.61 89.46 93.33 89.59 93.04C89.76 92.76 89.92 92.47 90.06 92.17C90.22 91.91 90.36 91.64 90.5 91.36C90.67 91.08 90.82 90.8 90.96 90.5C91.12 90.24 91.27 89.97 91.4 89.69C91.57 89.41 91.72 89.13 91.86 88.84C92.03 88.57 92.18 88.28 92.32 87.99C92.48 87.72 92.63 87.44 92.77 87.16C92.95 86.87 93.11 86.58 93.25 86.27C93.4 86.01 93.54 85.75 93.67 85.48C93.84 85.21 93.99 84.92 94.13 84.63C94.3 84.35 94.45 84.07 94.59 83.77C94.75 83.51 94.9 83.23 95.03 82.95C95.2 82.67 95.36 82.38 95.5 82.09C95.66 81.82 95.81 81.54 95.95 81.26C96.12 80.98 96.27 80.7 96.41 80.41C96.58 80.14 96.73 79.86 96.86 79.56C97.02 79.3 97.17 79.02 97.3 78.74C97.47 78.46 97.63 78.17 97.77 77.87C97.93 77.6 98.08 77.33 98.21 77.05C98.37 76.78 98.52 76.5 98.66 76.22C98.83 75.94 98.99 75.65 99.13 75.35C99.3 75.08 99.45 74.79 99.59 74.5C99.67 74.36 99.76 74.23 99.83 74.09V91.41V93.14V119.49C99.83 119.49 99.83 119.5 99.83 119.51C99.83 120.07 99.89 120.62 100 121.15C100 121.2 100.02 121.25 100.03 121.29C100.14 121.78 100.29 122.25 100.47 122.7C100.5 122.78 100.54 122.86 100.57 122.93C100.76 123.35 100.97 123.74 101.22 124.12C101.28 124.21 101.34 124.3 101.41 124.39C101.66 124.74 101.94 125.08 102.24 125.39C102.32 125.47 102.4 125.56 102.49 125.64C102.8 125.94 103.14 126.21 103.5 126.46C103.59 126.52 103.68 126.58 103.77 126.64C104.15 126.89 104.55 127.1 104.97 127.29C105.05 127.32 105.13 127.36 105.2 127.39C105.66 127.57 106.13 127.72 106.63 127.83C106.68 127.83 106.72 127.85 106.77 127.86C107.31 127.97 107.87 128.02 108.44 128.03C108.44 128.03 108.45 128.03 108.46 128.03H108.48H119.33H119.35C119.35 128.03 119.36 128.03 119.37 128.03C119.94 128.03 120.5 127.97 121.04 127.86C121.09 127.86 121.13 127.84 121.18 127.83C121.67 127.72 122.15 127.58 122.61 127.39C122.69 127.36 122.77 127.32 122.84 127.29C123.26 127.11 123.66 126.89 124.05 126.64C124.14 126.58 124.23 126.52 124.32 126.46C124.68 126.21 125.02 125.94 125.33 125.64C125.42 125.56 125.5 125.48 125.58 125.39C125.88 125.08 126.16 124.75 126.41 124.39C126.47 124.3 126.54 124.21 126.6 124.12C126.85 123.74 127.07 123.35 127.25 122.93C127.29 122.85 127.32 122.77 127.35 122.69C127.54 122.24 127.68 121.77 127.79 121.29C127.8 121.24 127.81 121.19 127.82 121.15C127.93 120.62 127.98 120.07 127.99 119.51C127.99 119.51 127.99 119.5 127.99 119.49V93.14V91.4V42.91V40.37V9.99C127.99 9.99 101.42 2.26 100.31 5.4C100.21 5.6 75 53.33 74.87 53.61C74.8 53.73 74.72 53.85 74.66 53.97V40.69C74.66 40.69 74.66 40.68 74.66 40.67C74.66 40.11 74.6 39.56 74.49 39.03C74.49 38.98 74.47 38.93 74.46 38.88C74.35 38.4 74.21 37.93 74.02 37.48C73.99 37.4 73.95 37.32 73.92 37.24C73.73 36.83 73.52 36.43 73.27 36.05C73.21 35.96 73.15 35.87 73.08 35.78C72.83 35.43 72.55 35.1 72.25 34.78C72.17 34.7 72.08 34.61 72 34.53C71.69 34.23 71.35 33.96 70.99 33.71C70.9 33.65 70.81 33.59 70.72 33.53C70.34 33.29 69.94 33.07 69.52 32.89C69.44 32.85 69.36 32.82 69.28 32.79C68.82 32.61 68.35 32.46 67.86 32.35C67.81 32.34 67.76 32.33 67.72 32.32C67.18 32.21 66.63 32.16 66.06 32.15C66.06 32.15 66.05 32.15 66.04 32.15H55.15C55.15 32.15 55.14 32.15 55.13 32.15C54.56 32.15 54.01 32.21 53.47 32.32C53.42 32.32 53.37 32.34 53.33 32.35C52.84 32.46 52.37 32.6 51.91 32.79C51.83 32.82 51.75 32.86 51.67 32.89C51.25 33.07 50.85 33.29 50.47 33.53C50.38 33.59 50.29 33.65 50.2 33.71C49.84 33.96 49.51 34.23 49.19 34.53C49.1 34.61 49.02 34.69 48.94 34.78C48.64 35.09 48.36 35.42 48.11 35.77C48.05 35.86 27.69 65.03 27.52 65.28C26.23 62.17 23.15 59.98 19.54 59.98L21.35 127.88" fill="white" fill-opacity="0.6"/>
<path d="M18.91 60H9.92C4.44134 60 0 64.4413 0 69.92V118.08C0 123.559 4.44134 128 9.92 128H18.91C24.3887 128 28.83 123.559 28.83 118.08V69.92C28.83 64.4413 24.3887 60 18.91 60Z" fill="white"/>
<path d="M65.5001 32.15H56.5101C51.0314 32.15 46.5901 36.5913 46.5901 42.07V117.99C46.5901 123.469 51.0314 127.91 56.5101 127.91H65.5001C70.9788 127.91 75.4201 123.469 75.4201 117.99V42.07C75.4201 36.5913 70.9788 32.15 65.5001 32.15Z" fill="white"/>
<path d="M118.08 0H109.09C103.611 0 99.1699 4.44134 99.1699 9.92V118.08C99.1699 123.559 103.611 128 109.09 128H118.08C123.559 128 128 123.559 128 118.08V9.92C128 4.44134 123.559 0 118.08 0Z" fill="white"/>
</g>
<defs>
<clipPath id="clip0_526_8639">
<rect width="128" height="128" fill="white"/>
</clipPath>
</defs>
</svg>
